<svg width="16" height="16" viewBox="0 0 16 16" fill="none" xmlns="http://www.w3.org/2000/svg">
<path d="M2.04259 5.00536C2.5975 3.90105 3.44847 2.97274 4.50045 2.32407C5.55244 1.67541 6.76403 1.33195 7.99992 1.33203C9.79659 1.33203 11.3059 1.9927 12.4599 3.0687L10.5486 4.9807C9.85725 4.32003 8.97859 3.98336 7.99992 3.98336C6.26325 3.98336 4.79325 5.1567 4.26992 6.73203C4.13659 7.13203 4.06059 7.5587 4.06059 7.9987C4.06059 8.4387 4.13659 8.86536 4.26992 9.26536C4.79392 10.8414 6.26325 12.014 7.99992 12.014C8.89659 12.014 9.65992 11.7774 10.2573 11.3774C10.6035 11.1494 10.9 10.8535 11.1287 10.5077C11.3574 10.1619 11.5136 9.77327 11.5879 9.36536H7.99992V6.7867H14.2786C14.3573 7.2227 14.3999 7.67736 14.3999 8.15003C14.3999 10.1807 13.6733 11.89 12.4119 13.05C11.3093 14.0687 9.79992 14.6654 7.99992 14.6654C7.12434 14.6657 6.25728 14.4935 5.44828 14.1586C4.63929 13.8237 3.90422 13.3327 3.28509 12.7135C2.66597 12.0944 2.17492 11.3593 1.84001 10.5503C1.5051 9.74134 1.3329 8.87428 1.33325 7.9987C1.33325 6.9227 1.59059 5.90536 2.04259 5.00536Z" fill="white"/>
</svg>
