<svg width="154" height="30" viewBox="0 0 154 30" fill="none" xmlns="http://www.w3.org/2000/svg">
<g clip-path="url(#clip0_2305_9160)">
<path d="M58.3228 9.9171C57.3727 12.8705 55.4725 15.3264 52.561 17.2539C49.6801 19.2124 46.4927 20.1762 43.0295 20.1762H37.0532C33.59 20.1762 31.0156 19.2124 29.3606 17.2539C27.7056 15.2953 27.3685 12.8705 28.3186 9.9171C29.2687 6.96373 31.1382 4.56995 33.9884 2.76684C36.808 0.932642 39.9954 0 43.4892 0H43.6731H49.4962C53.0207 0 55.5951 0.901555 57.2501 2.73575C58.9051 4.56995 59.2422 6.96373 58.3228 9.9171ZM47.8106 5.25389H41.8343C40.118 5.25389 38.5549 5.72021 37.1758 6.65285C35.766 7.58549 34.8466 8.76684 34.3869 10.1969C33.9271 11.6269 34.111 12.8083 34.9385 13.6788C35.766 14.5803 37.0226 15.0155 38.7388 15.0155H44.7151C46.4314 15.0155 47.9638 14.5803 49.3736 13.6788C50.7528 12.8083 51.6722 11.6269 52.1319 10.1969C52.5916 8.76684 52.4077 7.58549 51.6109 6.65285C50.7528 5.72021 49.4962 5.25389 47.8106 5.25389Z" fill="#094A35"/>
<path d="M24.4569 17.5959C23.8746 19.4301 22.7713 20.3316 21.1163 20.3316C19.9517 20.3316 18.971 19.8964 18.1741 18.9948L9.71534 9.10881L6.19085 20.1762H0L5.63919 2.6114C5.85372 1.86529 6.31344 1.24352 6.92639 0.777202C7.53935 0.279793 8.30554 0.0621762 9.16368 0.0621762C10.2976 0.0621762 11.1864 0.466321 11.8913 1.27461L20.3808 11.1606L23.9359 0H30.1267L24.4569 17.5959Z" fill="#094A35"/>
<path d="M96.5097 6.09326L90.4414 20.456H85.262L91.4528 6.09326H96.5097Z" fill="#669B41"/>
<path d="M120.814 20.487L114.899 20.456L110.301 14.6425H105.336L102.915 20.487L97.3987 20.456L101.935 10.0725H111.956C112.998 10.0725 115.144 10.0415 115.818 10.0725C116.952 10.1036 119.986 10.0725 120.231 7.89637C120.476 5.87565 118.944 5.25389 115.818 5.25389H99.9425L100.341 0H115.818C118.913 0 119.128 0.0621762 120.507 0.310881C123.265 0.839378 125.809 3.01554 126.33 6.06218C126.514 7.24352 126.33 9.60622 124.399 11.4093C121.58 13.9896 117.841 14.1451 116.124 14.5181L120.814 20.487Z" fill="#094A35"/>
<path d="M131.387 20.487L136.321 14.8601H142.972L138.558 8.36269L126.82 20.487H117.718L136.199 2.54922C136.658 2.0829 138.865 0 139.876 0C140.673 0 141.347 0.715026 142.144 2.20725L153.913 20.487H131.387Z" fill="#094A35"/>
<path d="M37.9725 23.3782L36.7772 27.1399H35.7352L36.9305 23.3782H34.8464L35.1223 22.5699H40.3324L40.0566 23.3782H37.9725Z" fill="#093334"/>
<path d="M41.8955 27.1399L43.3666 22.5388H47.9944L47.7492 23.316H44.1634L43.8263 24.3419H45.9104L45.6652 25.1191H43.5811L43.2134 26.2694H46.8298L46.554 27.1399H41.8955Z" fill="#093334"/>
<path d="M55.2579 23.3782H52.4077L51.4882 26.3005H54.3385L54.6449 25.3057L55.6257 25.5233L55.4418 26.0518C55.3192 26.487 55.1353 26.7668 54.9208 26.9222C54.7062 27.0777 54.3998 27.1399 53.9707 27.1399H51.2737C50.8446 27.1399 50.5688 27.0777 50.4462 26.9222C50.3236 26.7668 50.3543 26.487 50.4769 26.0518L51.243 23.6269C51.3656 23.1917 51.5495 22.9119 51.7641 22.7564C51.9786 22.601 52.2851 22.5388 52.7141 22.5388H55.4111C55.8402 22.5388 56.116 22.601 56.2386 22.7564C56.3612 22.9119 56.3306 23.1917 56.208 23.6269L56.0547 24.0621L54.9514 24.2176L55.2579 23.3782Z" fill="#093334"/>
<path d="M59.0276 27.1399L60.4987 22.5388H61.5407L60.9584 24.3108H64.2377L64.82 22.5388H65.8927L64.4216 27.1399H63.3489L63.9925 25.1502H60.7132L60.0696 27.1399H59.0276Z" fill="#093334"/>
<path d="M68.4976 27.1399L69.9687 22.5388H70.6736L73.0028 25.2435C73.156 25.43 73.2786 25.6165 73.3706 25.7409C73.4625 25.3057 73.5544 25.057 73.5851 24.9637L74.3513 22.5388H75.3014L73.8303 27.1399H73.1254L70.7042 24.3108C70.6123 24.1865 70.5203 24.0621 70.459 23.9378C70.3977 24.2487 70.3364 24.4663 70.2751 24.6528L69.4783 27.1399H68.4976Z" fill="#093334"/>
<path d="M78.9179 23.658C79.0404 23.2228 79.2243 22.943 79.4389 22.7876C79.6534 22.6321 79.9599 22.5699 80.3889 22.5699H83.7296C84.1586 22.5699 84.4344 22.6321 84.557 22.7876C84.6796 22.943 84.649 23.2228 84.5264 23.658L83.7602 26.0829C83.6376 26.5181 83.4537 26.7979 83.2392 26.9534C83.0247 27.1088 82.7182 27.171 82.2891 27.171H78.9485C78.5194 27.171 78.2436 27.1088 78.121 26.9534C77.9984 26.7979 78.0291 26.5181 78.1517 26.0829L78.9179 23.658ZM79.1017 26.3005H82.5649L83.4844 23.3782H80.0212L79.1017 26.3005Z" fill="#093334"/>
<path d="M87.3459 27.1399L88.817 22.5388H89.8591L88.6638 26.2694H92.0657L91.7899 27.1399H87.3459Z" fill="#093334"/>
<path d="M96.1112 23.658C96.2338 23.2228 96.4177 22.943 96.6322 22.7876C96.8467 22.6321 97.1532 22.5699 97.5823 22.5699H100.923C101.352 22.5699 101.628 22.6321 101.75 22.7876C101.873 22.943 101.842 23.2228 101.72 23.658L100.954 26.0829C100.831 26.5181 100.647 26.7979 100.433 26.9534C100.218 27.1088 99.9115 27.171 99.4825 27.171H96.1419C95.7128 27.171 95.437 27.1088 95.3144 26.9534C95.1918 26.7979 95.2224 26.5181 95.345 26.0829L96.1112 23.658ZM96.3257 26.3005H99.7889L100.708 23.3782H97.2452L96.3257 26.3005Z" fill="#093334"/>
<path d="M109.995 23.3782H106.716L105.796 26.3005H109.075L109.413 25.2746H107.696L107.941 24.4974H110.7L110.179 26.0829C110.056 26.5181 109.872 26.7979 109.658 26.9534C109.443 27.1088 109.137 27.171 108.708 27.171H105.582C105.152 27.171 104.877 27.1088 104.754 26.9534C104.631 26.7979 104.662 26.5181 104.785 26.0829L105.551 23.658C105.674 23.2228 105.857 22.943 106.072 22.7876C106.286 22.6321 106.593 22.5699 107.022 22.5699H110.148C110.577 22.5699 110.853 22.6321 110.945 22.7876C111.068 22.943 111.068 23.2228 110.914 23.5959L110.884 23.6891L109.811 23.8756L109.995 23.3782Z" fill="#093334"/>
<path d="M115.052 27.1399L115.695 25.088L114.163 22.5388H115.573L116.553 24.3108L118.668 22.5388H119.894L116.768 25.057L116.094 27.1399H115.052Z" fill="#093334"/>
<path d="M108.432 0L106.133 5.2228H69.172C68.4058 5.2228 67.9461 5.50259 67.7928 6.03109C67.6089 6.55959 67.9154 6.83938 68.651 6.83938H78.7647C81.1859 6.83938 82.9941 7.43005 84.22 8.64249C85.4766 9.9171 85.7831 11.5648 85.1395 13.5544C84.4958 15.544 83.3925 17.0052 81.3085 18.2176C79.347 19.399 76.8952 20.1451 74.474 20.1451H44.3167L49.9558 14.9845H76.1597C76.8033 14.9845 77.4162 14.8601 77.9985 14.6425C78.7647 14.3627 79.1938 13.9896 79.347 13.4922C79.5003 12.9948 79.2857 12.6218 78.7341 12.342C78.305 12.1554 77.7533 12.0622 77.0791 12.0622H66.9653C64.7281 12.0622 63.0118 11.5337 61.8472 10.5078C60.5906 9.3886 60.2535 7.89637 60.8358 6.06218C61.4181 4.19689 62.7053 2.70466 64.6974 1.58549C66.5363 0.528497 68.5897 0.0310881 70.827 0.0310881H108.432V0Z" fill="#669B41"/>
<path d="M43.673 5.25389L45.9716 0L50.2623 0.0310881C50.2623 0.0310881 56.8516 0 58.4452 4.6943C60.0696 9.48186 56.0854 14.1762 55.3805 14.9534L77.2936 14.829C77.2936 14.829 81.3085 14.7047 82.044 14.6114C84.9862 14.2383 85.1701 13.5855 85.1701 13.5855C85.1701 13.5855 84.8023 16.4767 80.5116 18.715C77.6308 20.2073 74.5047 20.1762 74.5047 20.1762H37.0225L39.1985 14.9845C39.1985 14.9845 43.765 15.0155 44.3166 14.9534C44.3166 14.9534 47.6572 15.171 50.0784 13.057C52.1625 11.2228 52.9593 8.39378 51.5495 6.59067C50.3236 5.00518 46.4313 5.19171 46.4313 5.19171L43.673 5.25389Z" fill="#A7CE38"/>
<path opacity="0.59" d="M39.1985 15.0156L37.0226 20.2073C37.0226 20.2073 36.4402 20.2073 35.0611 20.083C33.9271 19.9586 32.9771 19.6788 32.9771 19.6788L35.6434 14.3317C35.6434 14.3317 36.0112 14.6425 36.9919 14.8602C38.0033 15.0467 39.1985 15.0156 39.1985 15.0156Z" fill="url(#paint0_linear_2305_9160)"/>
<path opacity="0.59" d="M45.9716 0.0310288L43.673 5.25383C43.673 5.25383 42.8762 5.25383 41.8341 5.25383C40.3937 5.25383 39.4436 5.5958 39.4436 5.5958L41.9874 0.093205C41.9874 0.093205 42.8149 0.0621169 43.8262 0.0310288C44.9602 -5.92433e-05 45.9716 0.0310288 45.9716 0.0310288Z" fill="url(#paint1_linear_2305_9160)"/>
<path opacity="0.59" d="M106.133 5.25389L108.432 0.0310881C108.432 0.0310881 109.229 0.0310881 110.271 0.0310881C111.711 0.0310881 112.539 0 112.539 0L110.301 5.2228C110.301 5.2228 109.321 5.2228 108.309 5.25389C107.114 5.25389 106.133 5.25389 106.133 5.25389Z" fill="url(#paint2_linear_2305_9160)"/>
<path opacity="0.65" d="M85.1394 13.6477C85.1394 13.6477 84.4652 14.3627 82.0133 14.6114C80.6955 14.7358 77.2629 14.8291 77.2629 14.8291C77.2629 14.8291 78.4276 14.7358 79.1325 13.8964C79.5922 13.3368 79.3163 12.7462 79.3163 12.7462L85.4765 11.6581C85.4765 11.6581 85.4765 12.1244 85.3539 12.5907C85.3233 12.9327 85.17 13.6788 85.1394 13.6477Z" fill="url(#paint3_linear_2305_9160)"/>
</g>
<defs>
<linearGradient id="paint0_linear_2305_9160" x1="34.5047" y1="16.503" x2="37.9945" y2="18.256" gradientUnits="userSpaceOnUse">
<stop stop-opacity="0"/>
<stop offset="0.1926" stop-color="#090908" stop-opacity="0.1618"/>
<stop offset="0.5845" stop-color="#0A0909" stop-opacity="0.491"/>
<stop offset="0.8632" stop-color="#080707" stop-opacity="0.7251"/>
<stop offset="1" stop-color="#070606" stop-opacity="0.84"/>
</linearGradient>
<linearGradient id="paint1_linear_2305_9160" x1="41.0147" y1="1.92992" x2="44.4568" y2="3.65895" gradientUnits="userSpaceOnUse">
<stop stop-opacity="0"/>
<stop offset="0.1926" stop-color="#090908" stop-opacity="0.1618"/>
<stop offset="0.5845" stop-color="#0A0909" stop-opacity="0.491"/>
<stop offset="0.8632" stop-color="#080707" stop-opacity="0.7251"/>
<stop offset="1" stop-color="#070606" stop-opacity="0.84"/>
</linearGradient>
<linearGradient id="paint2_linear_2305_9160" x1="111.133" y1="3.5636" x2="107.555" y2="1.76637" gradientUnits="userSpaceOnUse">
<stop stop-opacity="0"/>
<stop offset="0.1926" stop-color="#090908" stop-opacity="0.1618"/>
<stop offset="0.5845" stop-color="#0A0909" stop-opacity="0.491"/>
<stop offset="0.8632" stop-color="#080707" stop-opacity="0.7251"/>
<stop offset="1" stop-color="#070606" stop-opacity="0.84"/>
</linearGradient>
<linearGradient id="paint3_linear_2305_9160" x1="81.5758" y1="15.4016" x2="81.3655" y2="13.0963" gradientUnits="userSpaceOnUse">
<stop stop-color="#0B1B1C"/>
<stop offset="1" stop-opacity="0"/>
</linearGradient>
<clipPath id="clip0_2305_9160">
<rect width="153.913" height="30" fill="white"/>
</clipPath>
</defs>
</svg>
